<svg id="Capa_1" enable-background="new 0 0 512 512" height="512" viewBox="0 0 512 512" width="512" xmlns="http://www.w3.org/2000/svg"><g><g><path d="m276.529 504.5h-41.058c-3.314 0-6-2.686-6-6v-138.327c0-3.314 2.686-6 6-6h41.058c3.314 0 6 2.686 6 6v138.327c0 3.314-2.687 6-6 6z" fill="#9c9c9c"/><path d="m276.529 354.173h-41.058c-3.314 0-6 2.686-6 6v108.977h53.058v-108.977c0-3.314-2.687-6-6-6z" fill="#838383"/><path d="m309.057 440.803h-106.115c-24.419 0-44.215-19.796-44.215-44.215v-344.873c0-24.419 19.796-44.215 44.215-44.215h106.115c24.419 0 44.215 19.796 44.215 44.215v344.874c0 24.419-19.795 44.214-44.215 44.214z" fill="#5a5a5a"/><circle cx="256" cy="92.525" fill="#eb5569" r="50.847"/><circle cx="256" cy="224.944" fill="#fec165" r="50.847"/><circle cx="256" cy="355.778" fill="#0ab69f" r="50.847"/><path d="m256 41.679c-5.44 0-10.676.863-15.591 2.445 20.453 6.583 35.256 25.76 35.256 48.402s-14.803 41.818-35.256 48.402c4.914 1.582 10.151 2.445 15.591 2.445 28.082 0 50.847-22.765 50.847-50.847s-22.765-50.847-50.847-50.847z" fill="#e53950"/><path d="m256 174.097c-5.44 0-10.676.863-15.591 2.445 20.453 6.583 35.256 25.76 35.256 48.402s-14.803 41.818-35.256 48.402c4.914 1.582 10.151 2.445 15.591 2.445 28.082 0 50.847-22.765 50.847-50.847s-22.765-50.847-50.847-50.847z" fill="#fdb441"/><path d="m256 304.931c-5.44 0-10.676.863-15.591 2.445 20.453 6.583 35.256 25.76 35.256 48.402s-14.803 41.818-35.256 48.402c4.914 1.582 10.151 2.445 15.591 2.445 28.082 0 50.847-22.765 50.847-50.847s-22.765-50.847-50.847-50.847z" fill="#01998d"/><circle cx="256" cy="92.525" fill="#eb5569" r="50.847"/><circle cx="256" cy="224.944" fill="#fec165" r="50.847"/><circle cx="256" cy="355.778" fill="#0ab69f" r="50.847"/><path d="m256 41.679c-4.921 0-9.673.713-14.173 2.017 21.182 6.138 36.674 25.669 36.674 48.83s-15.491 42.691-36.674 48.83c4.5 1.304 9.252 2.017 14.173 2.017 28.082 0 50.847-22.765 50.847-50.847s-22.765-50.847-50.847-50.847z" fill="#e53950"/><path d="m256 174.097c-4.921 0-9.673.713-14.173 2.017 21.182 6.139 36.674 25.669 36.674 48.83s-15.491 42.691-36.674 48.83c4.5 1.304 9.252 2.017 14.173 2.017 28.082 0 50.847-22.765 50.847-50.847s-22.765-50.847-50.847-50.847z" fill="#fdb441"/><path d="m256 304.931c-4.921 0-9.673.713-14.173 2.017 21.182 6.139 36.674 25.669 36.674 48.83s-15.491 42.691-36.674 48.83c4.5 1.304 9.252 2.017 14.173 2.017 28.082 0 50.847-22.765 50.847-50.847s-22.765-50.847-50.847-50.847z" fill="#01998d"/><path d="m309.058 7.5h-34.016c24.419 0 44.215 19.795 44.215 44.215v344.874c0 24.419-19.796 44.215-44.215 44.215h-5.664c-.002 0-.003 0-.005 0h39.685c24.419 0 44.215-19.796 44.215-44.215v-344.874c-.001-24.42-19.796-44.215-44.215-44.215z" fill="#444"/></g><g><path d="m353.272 103.671c-4.142 0-7.5 3.358-7.5 7.5v285.417c0 20.245-16.47 36.715-36.714 36.715-11.246 0-95.241 0-106.115 0-20.244 0-36.714-16.47-36.714-36.715v-24.405c0-4.142-3.358-7.5-7.5-7.5s-7.5 3.358-7.5 7.5v24.405c0 28.516 23.199 51.715 51.714 51.715h19.029v56.197c0 4.142 3.358 7.5 7.5 7.5h53.058c4.142 0 7.5-3.358 7.5-7.5v-56.197h19.029c28.516 0 51.714-23.199 51.714-51.715v-285.417c-.001-4.142-3.359-7.5-7.501-7.5zm-78.243 393.329h-38.058v-48.697h38.058z"/><path d="m309.058 0h-106.064c-.017 0-.033 0-.051 0-28.516 0-51.714 23.199-51.714 51.715v285.469c0 4.142 3.358 7.5 7.5 7.5s7.5-3.358 7.5-7.5v-285.469c0-20.245 16.47-36.715 36.766-36.715h106.064c20.244 0 36.714 16.47 36.714 36.715v24.456c0 4.142 3.358 7.5 7.5 7.5s7.5-3.358 7.5-7.5v-24.456c-.001-28.516-23.2-51.715-51.715-51.715z"/><path d="m256 150.872c32.172 0 58.347-26.174 58.347-58.347s-26.175-58.346-58.347-58.346-58.347 26.174-58.347 58.347 26.175 58.346 58.347 58.346zm0-101.693c23.901 0 43.347 19.445 43.347 43.347s-19.446 43.346-43.347 43.346-43.347-19.445-43.347-43.347 19.446-43.346 43.347-43.346z"/><path d="m256 283.291c32.172 0 58.347-26.174 58.347-58.347s-26.174-58.347-58.347-58.347-58.347 26.174-58.347 58.347c0 32.172 26.175 58.347 58.347 58.347zm0-101.694c23.901 0 43.347 19.445 43.347 43.347 0 23.901-19.445 43.347-43.347 43.347s-43.347-19.445-43.347-43.347 19.446-43.347 43.347-43.347z"/><path d="m256 414.125c32.172 0 58.347-26.174 58.347-58.347s-26.174-58.347-58.347-58.347-58.347 26.174-58.347 58.347c0 32.172 26.175 58.347 58.347 58.347zm0-101.694c23.901 0 43.347 19.445 43.347 43.347 0 23.901-19.445 43.347-43.347 43.347s-43.347-19.445-43.347-43.347 19.446-43.347 43.347-43.347z"/></g></g></svg>