<?xml version="1.0"?>
<svg xmlns="http://www.w3.org/2000/svg" height="512px" viewBox="0 -76 512.001 512" width="512px"><g transform="matrix(0.302405 0 0 0.302405 178.585 125.567)"><path d="m119.5 188.699219c-27.300781-54.300781-28.5-53.097657-28.5-74.398438v-7.800781l30 24 30-51.785156-30-48.414063h-11.398438l-57.003906-28.5c-2.097656-.898437-4.199218-1.5-6.597656-1.5-6.300781 0-12.898438-.300781-19.199219-.300781-14.101562 0-25.800781 2.101562-25.800781 15.300781 0 2.398438-1 8.398438-1 14.699219 0 9 .5 19.199219 2 21.898438 8.402344 16.5 16.699219 30.902343 16.699219 44.402343 0 9.597657-4.601563 18.601563-14.199219 28.5-3 3-4.5 6-4.5 9.296875 0 12.304688 19.300781 25.503906 31 37.5 0 8.101563-.300781 13.5-.300781 18.003906 0 17.097657 6 17.699219 64.800781 76.199219 2.699219 3 6.601562 4.5 10.5 4.5 8.101562 0 15-6.601562 15-15 0-2.402343.300781-13.800781.300781-26.699219 0-6.601562 0-13.5-.300781-19.503906 0-10.195312-.601562-18.597656-1.5-20.398437zm0 0" fill="#5bc980" data-original="#5BC980"/><path d="m391 299.097656-30 40.804688c-9.300781-4.804688-16.800781-8.703125-18.601562-9.601563h-56.398438c-3.898438 0-7.800781-1.5-10.5-4.5l-28.5-28.203125-6-2.996094-51.597656-25.800781c-5.101563-2.703125-8.402344-7.800781-8.402344-13.5v-51.902343c-41.097656-27.597657-45.300781-25.496094-45.300781-42.898438 0-4.5.300781-10.199219.300781-18l-15-12v-100.199219h8.699219c27.300781-27.300781 26.699219-30.300781 45.601562-30.300781 5.097657 0 11.699219.300781 20.699219.300781 13.5 0 15.300781 11.101563 15.300781 24 0 4.796875-.300781 9.902344-.300781 14.699219l15 15c5.699219-5.699219 10.800781-10.5 15-14.097656 7.199219-6.300782 12.597656-9.601563 17.101562-9.601563 11.398438 0 17.699219 21 39 63.902344l55.496094 27.597656c5.402344 3 8.101563 6 8.402344 9.601563v2.996094c-1.199219 11.101562-17.699219 24.601562-30 37.199218v47.402344l21.300781 21.300781h8.699219zm0 0" fill="#faecd8" data-original="#FAECD8"/><path d="m391 299.097656-30 40.804688c-9.300781-4.804688-16.800781-8.703125-18.601562-9.601563h-56.398438c-3.898438 0-7.800781-1.5-10.5-4.5l-28.5-28.203125-6-2.996094v-254.699218c7.199219-6.304688 12.601562-9.601563 17.101562-9.601563 11.398438 0 17.699219 21 39 63.898438l55.5 27.601562c5.402344 2.996094 8.097657 6 8.398438 9.597657v3c-1.199219 11.101562-17.699219 24.601562-30 37.199218v47.402344l21.300781 21.300781h8.699219zm0 0" fill="#f4d7af" data-original="#F4D7AF" class=""/><path d="m477.5 184.800781c-2.699219-3-6.601562-4.5-10.5-4.5-2.402344 0-4.5.597657-6.597656 1.5-63.601563 31.800781-69.402344 30-69.402344 46.800781v11.699219h-30v99.601563c17.402344 8.695312 41.398438 20.398437 45 20.398437 13.800781 0 15-10.203125 15-22.800781v-7.199219h3.300781c23.699219 0 19.597657-.601562 49-30 4.800781 0 9.898438.300781 14.699219.300781 12.902344 0 24-1.800781 24-15.300781 0-23.101562 0-37.800781 0-47.703125 0-24.296875-3.601562-22.195312-34.5-52.796875zm0 0" fill="#e63950" data-original="#E63950" class="active-path" style="fill:#E63950"/></g> </svg>
