<svg id="Capa_1" enable-background="new 0 0 512 512" height="512" viewBox="0 0 512 512" width="512" xmlns="http://www.w3.org/2000/svg"><g><path d="m512 256c0 39.78-9.08 77.45-25.28 111.04-7.611 15.796-42.097 13.227-52.66 27.017-13.39 17.481-3.69 50.651-21.07 64.163-27.61 21.46-59.74 37.4-94.71 46.15-18.72 4.68-38.198-38.24-58.299-37.94-1.3.021-2.61.03-3.92.03-17.5 0-34.58-1.76-51.09-5.1-7.81-1.58-15.551 42.02-23.081 39.74-105.24-31.78-181.89-129.49-181.89-245.1 0-141.38 114.62-256 256-256s256 114.62 256 256z" fill="#e4f6ff"/><g><path d="m471.487 141.704v177.017c0 13.902-11.272 25.174-25.174 25.174h-324.149c-13.902 0-25.174-11.272-25.174-25.174v-177.017c0-13.902 11.272-25.174 25.174-25.174h324.149c13.902 0 25.174 11.272 25.174 25.174z" fill="#66b394"/></g><g><path d="m443.332 113.549v177.017c0 13.902-11.272 25.174-25.174 25.174h-324.149c-13.902 0-25.174-11.272-25.174-25.174v-177.017c0-13.902 11.272-25.174 25.174-25.174h324.149c13.902 0 25.174 11.272 25.174 25.174z" fill="#66b394"/></g><g><path d="m415.177 85.394v177.017c0 13.902-11.272 25.174-25.174 25.174h-324.15c-13.902 0-25.174-11.272-25.174-25.174v-177.017c0-13.902 11.272-25.174 25.174-25.174h324.149c13.903 0 25.175 11.272 25.175 25.174z" fill="#66b394"/></g><g><path d="m387.022 57.239v177.017c0 13.902-11.272 25.174-25.174 25.174h-324.15c-13.902 0-25.174-11.272-25.174-25.174v-177.017c0-13.902 11.272-25.174 25.174-25.174h324.149c13.903 0 25.175 11.272 25.175 25.174z" fill="#78c2a4"/><circle cx="199.773" cy="145.748" fill="#78c2a4" r="79.578"/><g fill="#66b394"><path d="m209.55 138.062c-6.449-2.279-13.574-5.028-17.536-8.136-1.107-.868-1.573-2.924-1.16-5.116.209-1.114 1.188-4.839 4.965-5.976 7.337-2.208 12.136 1.541 12.658 1.976 3.279 2.728 8.152 2.282 10.88-1.001 2.728-3.281 2.281-8.152-1.001-10.881-1.128-.939-5.166-3.998-11.298-5.459v-2.467c0-4.267-3.459-7.726-7.726-7.726-4.268 0-7.726 3.459-7.726 7.726v2.968c-.082.024-.161.043-.243.068-8.056 2.427-14.069 9.29-15.694 17.911-1.498 7.951 1.111 15.666 6.81 20.136 4.611 3.617 10.963 6.672 21.922 10.546 6.862 2.426 6.715 7.963 6.334 10.231-.783 4.657-4.7 9.69-11.453 9.735-6.919.048-8.881-.267-14.116-3.692-3.571-2.336-8.36-1.335-10.696 2.236s-1.335 8.359 2.235 10.696c5.658 3.701 9.873 5.268 14.901 5.874v2.782c0 4.267 3.459 7.726 7.726 7.726 4.268 0 7.726-3.459 7.726-7.726v-3.561c10.598-3.134 17.381-12.382 18.914-21.507 2.047-12.171-4.553-23.167-16.422-27.363z"/><path d="m387.022 187.43v46.825c0 13.902-11.272 25.174-25.174 25.174h-46.825c-.001-39.769 32.239-71.999 71.999-71.999z"/><path d="m387.022 57.239v46.825c-39.76 0-71.999-32.239-71.999-71.999h46.825c13.902 0 25.174 11.272 25.174 25.174z"/><path d="m84.523 259.43h-46.825c-13.902 0-25.174-11.272-25.174-25.174v-46.826c39.77 0 71.999 32.23 71.999 72z"/><path d="m84.523 32.065c0 39.76-32.23 71.999-71.999 71.999v-46.825c0-13.902 11.272-25.174 25.174-25.174z"/><path d="m199.773 233.051c-48.14 0-87.304-39.164-87.304-87.304s39.164-87.304 87.304-87.304 87.304 39.164 87.304 87.304-39.164 87.304-87.304 87.304zm0-159.155c-39.619 0-71.851 32.232-71.851 71.851s32.232 71.851 71.851 71.851 71.851-32.232 71.851-71.851-32.233-71.851-71.851-71.851z"/></g></g><g><path d="m118.796 413.181c-51.961 0-94.083-42.122-94.083-94.083s42.122-94.083 94.083-94.083h15.767v188.166z" fill="#ffc250"/><circle cx="134.563" cy="319.098" fill="#ffe07d" r="94.083"/><circle cx="134.563" cy="319.098" fill="#ffc250" r="73.678"/><circle cx="134.563" cy="319.098" fill="#ffe07d" r="55.508"/><path d="m143.822 327.4c1.131-6.745 2.608-14.239 4.984-18.678.664-1.24 2.608-2.055 4.838-2.026 1.134.014 4.971.334 6.744 3.858 3.442 6.845.578 12.22.24 12.809-2.12 3.701-.839 8.424 2.865 10.544 3.703 2.121 8.424.838 10.544-2.866.73-1.273 3.046-5.779 3.426-12.071l2.43-.426c4.203-.737 7.013-4.741 6.276-8.945-.737-4.203-4.742-7.013-8.945-6.276l-2.924.513c-.038-.076-.07-.152-.109-.228-3.782-7.516-11.58-12.253-20.353-12.364-8.09-.102-15.239 3.8-18.657 10.186-2.766 5.166-4.678 11.951-6.601 23.414-1.204 7.178-6.683 7.99-8.983 8.006-4.722.034-10.356-2.956-11.567-9.599-1.243-6.806-1.271-8.794 1.198-14.541 1.684-3.921-.129-8.465-4.05-10.149s-8.464.129-10.149 4.049c-2.668 6.212-3.483 10.635-3.211 15.692l-2.74.481c-4.203.737-7.013 4.741-6.276 8.945.737 4.203 4.742 7.013 8.945 6.276l3.508-.615c4.918 9.897 15.199 14.981 24.451 14.915 12.343-.089 22.033-8.49 24.116-20.904z" fill="#ffc250"/></g><g><path d="m259.92 336.5v175.47c-1.3.021-2.61.03-3.92.03-17.5 0-34.58-1.76-51.09-5.1-7.81-1.58-15.49-3.52-23.02-5.8-19.51-17.22-31.82-42.43-31.82-70.52 0-51.96 42.12-94.08 94.08-94.08z" fill="#ffc250"/><path d="m354 430.58c0 29.91-13.96 56.56-35.72 73.79-19.94 4.98-40.8 7.63-62.28 7.63-17.5 0-34.58-1.76-51.09-5.1-23.67-17.08-39.07-44.9-39.07-76.32 0-51.96 42.12-94.08 94.08-94.08s94.08 42.12 94.08 94.08z" fill="#ffe07d"/><circle cx="259.919" cy="430.58" fill="#ffc250" r="73.678"/><circle cx="259.919" cy="430.58" fill="#ffe07d" r="55.508"/><path d="m261.397 418.233c-6.172 2.948-13.154 6.043-18.153 6.647-1.396.169-3.18-.955-4.438-2.797-.64-.936-2.581-4.261-.715-7.737 3.627-6.75 9.671-7.492 10.348-7.553 4.247-.389 7.378-4.151 6.986-8.401-.391-4.249-4.152-7.377-8.402-6.986-1.461.134-6.48.826-11.849 4.128l-1.745-1.745c-3.017-3.017-7.909-3.018-10.927 0s-3.017 7.909 0 10.927l2.099 2.099c-.041.075-.084.145-.124.22-3.98 7.413-3.38 16.517 1.568 23.762 4.563 6.682 11.863 10.293 19.053 9.423 5.818-.703 12.47-3.034 22.958-8.044 6.567-3.137 10.379.882 11.714 2.756 2.74 3.846 3.528 10.176-1.215 14.982-4.858 4.926-6.469 6.091-12.592 7.371-4.177.874-6.856 4.968-5.982 9.144.873 4.177 4.967 6.855 9.144 5.982 6.618-1.384 10.706-3.256 14.69-6.384l1.967 1.967c3.017 3.017 7.909 3.018 10.927 0s3.017-7.909 0-10.927l-2.518-2.518c5.278-9.71 3.534-21.046-1.833-28.582-7.16-10.052-19.602-13.16-30.961-7.734z" fill="#ffc250"/></g><g><path d="m376.885 460.425c-51.961 0-94.083-42.122-94.083-94.083s42.122-94.083 94.083-94.083h15.767v188.166z" fill="#ffc250"/><path d="m486.73 366.34c0 .23 0 .47-.01.7-17.26 35.82-42.64 67.01-73.73 91.18-6.55 1.45-13.36 2.21-20.34 2.21-51.96 0-94.08-42.13-94.08-94.09s42.12-94.08 94.08-94.08 94.08 42.12 94.08 94.08z" fill="#ffe07d"/><circle cx="392.652" cy="366.342" fill="#ffc250" r="73.678"/><circle cx="392.652" cy="366.342" fill="#ffe07d" r="55.508"/><path d="m402.428 358.657c-6.449-2.279-13.574-5.028-17.536-8.136-1.107-.868-1.573-2.924-1.16-5.116.209-1.114 1.188-4.839 4.965-5.976 7.337-2.208 12.136 1.541 12.658 1.976 3.279 2.728 8.152 2.282 10.88-1 2.728-3.281 2.281-8.152-1.001-10.881-1.128-.939-5.166-3.999-11.298-5.459v-2.467c0-4.267-3.459-7.726-7.726-7.726s-7.726 3.459-7.726 7.726v2.968c-.082.024-.161.043-.243.068-8.056 2.427-14.069 9.29-15.694 17.911-1.498 7.951 1.111 15.667 6.81 20.136 4.611 3.617 10.963 6.672 21.922 10.546 6.862 2.426 6.715 7.963 6.334 10.231-.783 4.657-4.7 9.69-11.453 9.735-6.919.048-8.881-.267-14.116-3.692-3.571-2.336-8.36-1.335-10.696 2.236s-1.335 8.359 2.235 10.696c5.658 3.701 9.873 5.268 14.901 5.874v2.782c0 4.267 3.459 7.726 7.726 7.726s7.726-3.459 7.726-7.726v-3.561c10.598-3.134 17.381-12.382 18.914-21.507 2.046-12.173-4.554-23.169-16.422-27.364z" fill="#ffc250"/></g><path d="m455.578 266.714h-12.246v-12.246c0-6.587-5.34-11.926-11.926-11.926-6.587 0-11.926 5.339-11.926 11.926v12.246h-12.246c-6.587 0-11.926 5.34-11.926 11.926 0 6.587 5.339 11.926 11.926 11.926h12.246v12.246c0 6.587 5.34 11.926 11.926 11.926 6.587 0 11.926-5.34 11.926-11.926v-12.246h12.246c6.587 0 11.926-5.34 11.926-11.926 0-6.587-5.339-11.926-11.926-11.926z" fill="#fff"/><path d="m198.486 406.727h-12.246v-12.246c0-6.587-5.34-11.926-11.926-11.926-6.587 0-11.926 5.339-11.926 11.926v12.246h-12.246c-6.587 0-11.926 5.34-11.926 11.926 0 6.587 5.339 11.926 11.926 11.926h12.246v12.246c0 6.587 5.34 11.926 11.926 11.926 6.587 0 11.926-5.34 11.926-11.926v-12.245h12.246c6.587 0 11.926-5.34 11.926-11.926.001-6.587-5.339-11.927-11.926-11.927z" fill="#fff"/><g><circle cx="423.643" cy="88.357" fill="#dd5790" r="88.357"/><circle cx="423.643" cy="88.357" fill="#f9f6f6" r="74.357"/><circle cx="423.643" cy="88.357" fill="#f9f6f6" r="74.357"/><path d="m439.105 161.097c-4.99 1.06-10.16 1.62-15.46 1.62-41 0-74.36-33.36-74.36-74.36s33.36-74.36 74.36-74.36c5.3 0 10.47.56 15.46 1.62-33.6 7.13-58.89 37.04-58.89 72.74s25.29 65.61 58.89 72.74z" fill="#dddaec"/><g fill="#dd5790"><path d="m384.436 127.564c-4.972-4.972-4.972-13.034 0-18.006l60.407-60.407c4.972-4.972 13.034-4.972 18.006 0 4.972 4.972 4.972 13.034 0 18.006l-60.407 60.407c-4.972 4.972-13.034 4.972-18.006 0z"/><path d="m384.436 49.151c4.972-4.972 13.034-4.972 18.006 0l60.407 60.407c4.972 4.972 4.972 13.034 0 18.006-4.972 4.972-13.034 4.972-18.006 0l-60.407-60.407c-4.972-4.972-4.972-13.034 0-18.006z"/></g></g></g></svg>